<svg xmlns="http://www.w3.org/2000/svg" viewBox="0 0 1920 1080">
  <path fill="#337efe" fill-rule="evenodd" d="M714.835 594.917c309.197-.288 518.164 196.425 518.343 398.9.028 30.034-4.76 59.095-13.815 86.185L757.24 1080c-6.512-22.3-9.96-45.802-9.982-69.854-.08-90.557 37.223-175.831 37.153-255.7-.05-53.395-16.246-106.71-69.576-159.53ZM1920 0l.003 216.955c-38.549-63.37-94.86-113.05-149.404-113.005-42.886.04-26.671 63.965-37.432 133.245-5.286 53.068-31.816 116.972-31.777 159.68.07 74.524 53.578 133.095 128.32 133.025 36.48-.033 67.142-13.671 90.293-35.928L1920 1080h-328.202c-147.592-74.537-241.313-226.838-241.498-432.78-.186-210.593 154.964-430.827 172.702-647.22H1920Zm-772.913 157.84c.11 117.162-106.859 154.267-208.47 154.355-74.594.07-159.989-15.765-250.82-15.685-117.44.109-234.622 26.881-330.659 138.827 69.377 10.53 170.91 58.382 170.998 165.022C528.303 778.6 241.96 768.953-.008 881.617L0 0l980.251-.003c131.161 40.527 166.79 103.951 166.836 157.843Z"/>
</svg>